<svg width="35" height="35" viewBox="0 0 30 30" fill="none" xmlns="http://www.w3.org/2000/svg">
<g clip-path="url(#clip0_95_356)">
<path d="M0.975342 1.91455H4.87854L7.49369 14.9805C7.58292 15.4298 7.82732 15.8333 8.18411 16.1205C8.5409 16.4078 8.98734 16.5603 9.44529 16.5516H18.9301C19.388 16.5603 19.8345 16.4078 20.1912 16.1205C20.548 15.8333 20.7924 15.4298 20.8817 14.9805L22.443 6.79355H5.85434M9.75755 21.4306C9.75755 21.9695 9.32067 22.4064 8.78175 22.4064C8.24283 22.4064 7.80595 21.9695 7.80595 21.4306C7.80595 20.8916 8.24283 20.4548 8.78175 20.4548C9.32067 20.4548 9.75755 20.8916 9.75755 21.4306ZM20.4914 21.4306C20.4914 21.9695 20.0545 22.4064 19.5156 22.4064C18.9766 22.4064 18.5398 21.9695 18.5398 21.4306C18.5398 20.8916 18.9766 20.4548 19.5156 20.4548C20.0545 20.4548 20.4914 20.8916 20.4914 21.4306Z" stroke="#303030" stroke-width="4" stroke-linecap="round" stroke-linejoin="round"/>
</g>
<defs>
<clipPath id="clip0_95_356">
<rect width="30" height="30" fill="white" />
</clipPath>
</defs>
</svg>
