<svg width="27" height="27" viewBox="0 0 27 27" fill="none" xmlns="http://www.w3.org/2000/svg">
<path d="M15.975 3.23438C14.595 3.23438 13.2716 3.78256 12.2958 4.75833C11.3201 5.73411 10.7719 7.05755 10.7719 8.4375V11.3344H7.9875C7.8477 11.3344 7.73438 11.4477 7.73438 11.5875V15.4125C7.73438 15.5523 7.8477 15.6656 7.9875 15.6656H10.7719V23.5125C10.7719 23.6523 10.8852 23.7656 11.025 23.7656H14.85C14.9898 23.7656 15.1031 23.6523 15.1031 23.5125V15.6656H17.9122C18.0283 15.6656 18.1296 15.5866 18.1577 15.4739L19.114 11.6489C19.1539 11.4891 19.0331 11.3344 18.8684 11.3344H15.1031V8.4375C15.1031 8.20626 15.195 7.9845 15.3585 7.82099C15.522 7.65748 15.7438 7.56562 15.975 7.56562H18.9C19.0398 7.56562 19.1531 7.4523 19.1531 7.3125V3.4875C19.1531 3.3477 19.0398 3.23438 18.9 3.23438H15.975Z" fill="white"/>
</svg>
