<svg width="27" height="27" viewBox="0 0 27 27" fill="none" xmlns="http://www.w3.org/2000/svg">
<path d="M9.84375 11.25C9.84375 9.23071 11.4807 7.59375 13.5 7.59375C15.5193 7.59375 17.1563 9.23071 17.1563 11.25C17.1563 13.2693 15.5193 14.9062 13.5 14.9062C11.4807 14.9062 9.84375 13.2693 9.84375 11.25Z" fill="white"/>
<path fill-rule="evenodd" clip-rule="evenodd" d="M4.24524 9.98706C4.63183 5.297 8.5511 1.6875 13.2571 1.6875H13.743C18.449 1.6875 22.3682 5.297 22.7548 9.98706C22.963 12.5122 22.183 15.0196 20.5791 16.9811L15.1869 23.5756C14.3151 24.6419 12.685 24.6419 11.8132 23.5756L6.42097 16.9811C4.8171 15.0196 4.03709 12.5122 4.24524 9.98706ZM13.5 5.90625C10.5487 5.90625 8.15625 8.29873 8.15625 11.25C8.15625 14.2013 10.5487 16.5938 13.5 16.5938C16.4513 16.5938 18.8438 14.2013 18.8438 11.25C18.8438 8.29873 16.4513 5.90625 13.5 5.90625Z" fill="white"/>
</svg>
