<svg width="64" height="64" viewBox="0 0 64 64" fill="none" xmlns="http://www.w3.org/2000/svg">
<path d="M30.1317 0.0257676C30.0998 0.0385688 29.6334 0.0833732 29.1095 0.121777C28.5792 0.160181 27.6464 0.275392 27.0331 0.384202C26.4197 0.493013 25.7872 0.601824 25.6275 0.627426C24.7202 0.787442 23.3466 1.15228 22.0816 1.56192C20.8102 1.97796 19.986 2.29799 18.6635 2.88685C18.3823 3.01486 17.4815 3.4629 17.0982 3.66772C16.9959 3.72533 16.8618 3.77013 16.8043 3.77013C16.7468 3.77013 16.6829 3.80854 16.6637 3.85334C16.6509 3.89174 16.357 4.08376 16.0184 4.27578C14.9642 4.85184 13.8525 5.58791 12.8686 6.34318C11.7633 7.18806 11.6036 7.31608 11.5717 7.34808C11.5525 7.36728 11.3225 7.5721 11.0605 7.80252C10.4855 8.30177 9.61023 9.13385 8.9905 9.78032C8.74133 10.0427 8.45382 10.3436 8.34521 10.4524C8.24299 10.5612 7.92353 10.926 7.64242 11.2589C7.3613 11.5917 7.11213 11.8797 7.09296 11.8989C6.91407 12.0653 5.41904 14.1519 4.92709 14.9392C4.00707 16.3986 2.37149 19.6437 2.37149 20.0021C2.37149 20.0533 2.34593 20.0917 2.31398 20.0917C2.28204 20.0917 2.24371 20.1557 2.22454 20.2325C2.21176 20.3157 2.10315 20.623 1.98815 20.9238C0.173667 25.7819 -0.420511 31.1776 0.295058 36.3813C0.787012 39.9401 1.79648 43.2172 3.38734 46.3983C4.19874 48.024 5.20821 49.6882 6.08989 50.8787C6.62657 51.602 7.27824 52.4213 7.73186 52.9589C8.37715 53.7142 10.4089 55.7624 10.9966 56.2488C11.2267 56.4409 11.4886 56.6713 11.5844 56.7609C11.6739 56.8505 12.0636 57.1577 12.4406 57.433L13.1242 57.945L13.3095 57.721C13.4117 57.5994 13.6289 57.3177 13.7886 57.0873C14.37 56.2744 15.2453 55.0711 15.3859 54.8919C15.469 54.7895 15.5328 54.6871 15.5328 54.6551C15.5328 54.6231 15.2773 54.4055 14.9642 54.1622C14.2231 53.5926 13.3414 52.8053 12.2808 51.7684C11.9869 51.4804 11.233 50.6739 10.9711 50.3667C10.7986 50.1747 10.6005 49.9442 10.5239 49.8546C10.4472 49.765 10.23 49.4898 10.0383 49.2466C9.84663 48.9969 9.66134 48.7665 9.63579 48.7345C9.06717 48.0432 7.70631 45.8158 7.01629 44.4333C6.74157 43.8956 6.03239 42.2507 5.91739 41.8858C5.86627 41.745 5.74488 41.3866 5.64266 41.0858C4.93348 39.076 4.40958 36.5541 4.21791 34.2371C4.1093 32.861 4.17319 29.8015 4.34569 28.5725C4.70347 25.9803 5.34876 23.5161 6.20489 21.4999C6.3135 21.2374 6.4349 20.9302 6.47323 20.8278C6.58184 20.5398 7.46353 18.786 7.78936 18.2035C9.41856 15.3361 11.8464 12.4686 14.3828 10.4204C17.2834 8.07135 20.7846 6.22157 24.1261 5.27428C24.4455 5.18467 24.848 5.06946 25.0205 5.01825C25.3719 4.91584 25.8894 4.80703 26.9053 4.60861C27.557 4.487 27.8189 4.4422 29.0775 4.26938C29.9017 4.15417 34.061 4.15417 34.8596 4.26938C35.179 4.31418 35.6646 4.37819 35.9457 4.41659C39.0955 4.83264 42.897 6.13196 45.7209 7.75772C46.3981 8.14816 47.3182 8.72421 47.3373 8.77542C47.3501 8.80742 47.3884 8.82662 47.4268 8.82662C47.5737 8.82662 49.4713 10.2732 50.4488 11.1308C53.0172 13.3903 55.0936 16.0593 56.7292 19.202C57.515 20.719 58.1986 22.3767 58.5948 23.7401C59.0164 25.2058 59.1314 25.6667 59.3295 26.646C60.1217 30.6848 60.0451 34.5059 59.0995 38.5255C58.9589 39.108 58.7928 39.7672 58.7225 39.9977C58.6459 40.2281 58.5628 40.5161 58.5245 40.6377C58.4861 40.7593 58.4223 40.9642 58.3711 41.0858C58.3264 41.2074 58.1986 41.553 58.0836 41.8538C57.975 42.1547 57.7961 42.6155 57.6875 42.8779C57.3808 43.6396 56.2756 45.8286 55.9178 46.3663C55.7389 46.6415 55.5919 46.8783 55.5919 46.8975C55.5919 46.9935 54.2055 48.9649 53.8158 49.4322C53.6816 49.5858 53.5219 49.7778 53.458 49.861C52.8766 50.5971 51.2538 52.2677 50.4488 52.9717C50.2379 53.1509 49.9824 53.3814 49.8738 53.471C49.7715 53.567 49.2604 53.9574 48.7429 54.3479C48.219 54.7383 47.7973 55.0647 47.7973 55.0839C47.7973 55.1735 48.3532 55.9672 49.599 57.6634C49.714 57.8234 49.829 57.977 49.8546 58.0154C49.8801 58.0474 49.9696 58.1626 50.0527 58.265L50.1996 58.4443L50.4871 58.233C50.6404 58.1114 50.9152 57.913 51.0877 57.7914C51.2666 57.6698 51.4455 57.5354 51.4966 57.4842C51.6882 57.2985 52.2505 56.8953 52.3208 56.8953C52.3655 56.8953 52.3974 56.8697 52.3974 56.8441C52.3974 56.8121 52.7233 56.4985 53.1194 56.1464C53.9244 55.4232 55.3939 53.9702 55.8922 53.4006C56.0711 53.1957 56.2883 52.9461 56.3714 52.8565C56.5183 52.6837 56.6844 52.4789 57.4767 51.4676C57.7003 51.1731 58.0581 50.6867 58.2561 50.3795C58.4606 50.0722 58.6523 49.797 58.6778 49.7586C58.8184 49.573 59.4317 48.5809 59.8406 47.8768C60.8309 46.1423 61.7509 44.0749 62.3771 42.1419C63.6293 38.3143 64.1532 34.4931 63.9615 30.5887C63.8082 27.4076 63.3482 24.9498 62.3323 21.8519C61.9298 20.623 61.8404 20.3797 61.5209 19.6437C61.4315 19.4517 61.3229 19.1892 61.2718 19.0676C61.112 18.6772 60.2176 16.8722 59.9684 16.4434C59.8342 16.2129 59.6617 15.9121 59.5787 15.7713C59.502 15.6305 59.387 15.4257 59.3231 15.3233C58.9142 14.6064 57.6364 12.8078 56.7547 11.7069C56.103 10.894 54.5569 9.27467 53.3877 8.18016C52.9277 7.75132 51.586 6.67602 50.9279 6.19597C50.666 6.01035 50.436 5.83753 50.4168 5.81833C50.3465 5.73512 49.0496 4.90304 48.2701 4.4422C47.8165 4.17977 47.4012 3.93015 47.3501 3.89814C47.0115 3.69332 45.229 2.84204 44.4559 2.51561C44.2387 2.426 43.9767 2.31079 43.8681 2.26599C43.6892 2.18918 43.4848 2.11237 42.5903 1.77954C41.6192 1.4211 39.5938 0.857849 38.4374 0.627426C36.1566 0.172982 34.2974 -0.00623555 31.9207 0.000165077C30.9751 0.000165077 30.1701 0.0129663 30.1317 0.0257676Z" fill="white"/>
<path fill-rule="evenodd" clip-rule="evenodd" d="M37.1596 7.77044C39.5875 8.11608 42.0728 9.05697 43.8681 10.3179C47.069 12.5581 50.3849 15.9824 52.1099 18.8435C53.6241 21.359 54.755 24.3673 55.3044 27.35C55.6558 29.2637 55.5728 31.9648 55.1 34.269C55.0425 34.5507 54.9722 34.8195 54.9339 34.8579C54.8189 35.0115 54.525 34.9475 54.2566 34.7235C53.918 34.4418 53.2727 34.1346 52.7616 34.013C52.538 33.9618 52.046 33.917 51.6243 33.917C50.9982 33.917 50.8704 33.8978 50.781 33.8018C50.6915 33.7058 50.6788 33.4241 50.6596 31.8048C50.6404 29.987 50.634 29.9038 50.4935 29.5966C49.7779 28.054 48.0529 27.4588 46.5834 28.2588C45.9445 28.6045 43.8361 30.7679 42.75 32.1888C41.9833 33.1937 40.7758 34.205 39.7025 34.7427C39.1658 35.0115 38.9038 35.0051 38.6227 34.7235L38.4055 34.5058V31.92C38.4055 28.7005 38.3097 27.7724 37.8816 26.6715C37.6516 26.0826 37.4855 25.9098 37.1085 25.8714C36.8657 25.8394 36.8018 25.865 36.623 26.0186C36.3866 26.2362 36.1566 26.8507 36.0096 27.6892C35.8946 28.3677 35.8691 32.5857 35.9841 33.6674C36.0416 34.2882 36.0416 34.3522 35.9138 34.6403C35.6646 35.2035 35.1343 35.6452 34.5721 35.7412C34.1632 35.8116 33.1984 35.2099 32.6554 34.5379C32.2337 34.0194 31.9526 33.4241 31.6715 32.4641C31.0901 30.4543 30.924 28.5981 31.1156 26.4283C31.2115 25.3594 31.1795 23.4392 31.0581 22.4727C31.0198 22.1782 30.8856 21.5574 30.7642 21.0965C29.8123 17.5506 29.6014 16.7185 29.4864 16.0913C29.3523 15.3488 29.3203 13.5822 29.4225 12.8269C29.48 12.3981 29.5567 12.1421 29.71 11.8604C30.3681 10.6123 32.0612 9.87625 33.5115 10.1963C33.9076 10.2859 34.1951 10.4267 35.0832 10.9388C36.3802 11.694 36.5591 11.7452 37.888 11.6876C38.6035 11.662 38.8783 11.6172 39.4277 11.4572C39.8366 11.3356 40.2455 11.2588 40.4691 11.2588C41.453 11.2588 42.6861 12.0653 43.3634 13.1534C43.5934 13.5182 43.6828 13.7486 43.7786 14.2159C43.932 14.9583 43.9511 16.1809 43.8106 16.7761C43.6636 17.4034 43.472 18.6003 43.3442 19.6756C43.1909 20.9621 43.1909 23.2728 43.3442 24.092C43.5103 25.0201 43.5359 25.8458 43.4272 26.9531C43.3186 28.086 43.3442 28.2588 43.6509 28.4381C43.817 28.5405 43.8873 28.5405 44.1428 28.4765C44.7306 28.3292 45.082 28.1116 45.3376 27.7468C45.6123 27.3436 45.6506 27.1195 45.7465 25.2121C45.8103 23.9256 45.9126 23.5544 46.3087 23.1383C46.9604 22.4663 48.0465 22.4279 48.6918 23.0615C48.8132 23.1831 49.3307 23.7016 49.8418 24.22C50.666 25.0521 50.8066 25.1609 51.1004 25.2505C51.3688 25.3274 51.4838 25.3338 51.7074 25.2761C52.3271 25.1097 52.653 24.6553 52.653 23.932C52.653 23.0551 52.4038 21.6726 52.1099 20.9173C51.8927 20.3733 50.6724 18.5043 49.746 17.301C48.4937 15.6816 46.5004 13.531 45.3056 12.5069C43.6828 11.1244 41.5936 9.90825 40.2455 9.56902C38.4885 9.12097 37.2427 8.99296 34.604 8.98656C32.6043 8.98656 32.4701 8.99296 31.9526 9.13378C31.2754 9.31299 30.2403 9.82504 29.7931 10.1899C29.0839 10.7787 28.5409 11.6044 28.2789 12.5069C28.132 13.0062 28.1064 13.243 28.0745 14.2671C28.0233 16.0529 28.1703 16.9553 28.7964 18.5683C29.6653 20.8085 29.8826 22.5559 29.5759 24.8089C29.4737 25.5962 29.4417 26.1338 29.4417 27.2283C29.4417 29.0269 29.5823 30.2238 29.9784 31.92C30.317 33.3601 30.5215 33.8594 31.0198 34.3906C31.269 34.6659 31.3073 34.8131 31.1476 34.9475C31.0262 35.0499 30.6045 34.9731 29.6717 34.6723C27.4931 33.981 26.1003 33.1809 24.7905 31.8496C23.3466 30.3902 22.401 28.9565 21.5385 26.9403C19.8007 22.8439 20.184 18.2227 22.5863 14.3951C23.4872 12.9613 25.1164 11.3228 26.5539 10.4011C26.9947 10.1131 28.5217 9.27459 28.9817 9.05697C30.4831 8.3529 32.3359 7.78964 33.5179 7.66803C34.2718 7.59763 36.3546 7.65523 37.1596 7.77044ZM32.7512 11.2844C32.042 11.246 31.4095 11.4892 30.9367 11.9821C30.6173 12.3149 30.4192 13.1726 30.3745 14.4271C30.3426 15.3104 30.3553 15.4832 30.547 16.6033C30.7706 17.9154 31.1412 19.5156 31.4415 20.4437C31.927 21.9734 31.9654 22.4087 31.9781 26.2042C31.9909 29.507 32.0037 29.7118 32.2784 31.0687C32.5915 32.5857 32.8598 33.1681 33.5115 33.7634C34.1696 34.365 34.6807 34.5187 34.9938 34.205L35.1535 34.045L35.1407 30.6015C35.1279 27.2731 35.1343 27.1451 35.2685 26.6203C35.4346 25.9482 35.8818 24.9945 36.1182 24.7961C36.3738 24.5785 36.7124 24.4889 37.1277 24.5273C37.8369 24.5913 38.2138 25.0009 38.5972 26.1466C38.9677 27.2475 38.9997 27.5164 39.038 30.3134C39.0763 32.8545 39.0763 32.8929 39.2169 33.0273C39.4788 33.2897 39.9069 33.1681 40.4308 32.6817C40.8461 32.2976 41.0505 31.9776 41.37 31.1903C42.1047 29.3854 42.5264 27.4268 42.6031 25.4682C42.6286 24.6809 42.6158 24.3545 42.5264 23.868C42.3858 23.0615 42.3283 20.9749 42.4242 20.034C42.4625 19.6436 42.5903 18.9011 42.6989 18.3763C42.8586 17.621 42.897 17.2306 42.9225 16.3793C42.9545 15.3104 42.8714 14.1903 42.75 14.1519C42.7181 14.1391 42.7053 14.0623 42.7245 13.9726C42.8011 13.6782 42.2453 12.9549 41.6894 12.6285C40.9803 12.2125 40.0794 12.1037 39.2936 12.3405C38.5524 12.5645 38.1116 12.6221 37.428 12.5837C36.623 12.5325 36.4249 12.4813 34.636 11.8284C33.4668 11.406 33.1154 11.3036 32.7512 11.2844Z" fill="white"/>
<path fill-rule="evenodd" clip-rule="evenodd" d="M8.93944 28.4509C9.03527 28.5085 9.20778 28.6813 9.32278 28.835C9.65501 29.283 10.262 29.7438 10.9392 30.0575C11.6356 30.3903 11.7634 30.5375 11.7634 31.0304C11.7634 31.3248 11.5589 31.792 11.3673 31.9265C11.265 31.9969 11.2459 32.0545 11.2842 32.2465C11.3353 32.5409 11.5462 32.8482 11.7953 33.0018C12.1914 33.245 12.2362 33.2322 12.7856 32.7905C13.252 32.4129 13.3159 32.3809 13.6034 32.3809C14.0954 32.3809 14.2295 32.4449 15.7246 33.3474C16.0248 33.5266 17.3857 34.3331 17.5582 34.4355C18.2035 34.8003 18.6252 35.114 18.8616 35.3764C19.2513 35.8244 19.558 36.4709 19.6027 36.9574C19.6346 37.3286 19.6219 37.3862 19.4813 37.5526C19.3982 37.655 19.2896 37.8342 19.2385 37.943C19.1682 38.1223 19.1682 38.1799 19.2577 38.3719C19.4557 38.7879 19.8583 38.8071 20.6185 38.4487C21.0274 38.2503 21.1041 38.2375 21.6983 38.2439C22.2797 38.2439 22.7844 38.2951 24.0431 38.4679C24.7139 38.5575 26.605 38.5383 27.4484 38.4231C28.2087 38.3271 28.5665 38.2567 30.0679 37.9238C30.4896 37.8278 31.0965 37.6934 31.4096 37.6294C32.7002 37.3478 33.8118 37.3606 34.8277 37.6678C35.1727 37.7766 36.1438 38.2311 37.4791 38.9095C38.7378 39.556 39.7536 40.0297 40.0028 40.1001C40.3861 40.2025 40.45 40.2025 40.8078 40.1129C41.2295 40.0041 41.4723 40.0233 42.3348 40.2473C43.3379 40.5033 44.1876 40.8617 45.4973 41.5786C45.951 41.8282 46.6793 42.1035 47.1457 42.2059C47.4204 42.2635 47.4971 42.5259 47.2927 42.6923C47.0435 42.8971 46.2193 43.326 46.0851 43.326C46.0149 43.326 44.7946 42.8587 43.3762 42.2955C39.3256 40.6697 39.0508 40.5865 37.115 40.3753C36.3291 40.2857 36.048 40.3177 35.7988 40.5097C35.3388 40.8745 34.3741 41.873 34.3932 41.969C34.4188 42.1163 34.6296 42.2059 35.473 42.4235C36.1119 42.5899 38.6164 43.262 39.8111 43.582C40.2264 43.6972 41.0889 43.9276 41.9834 44.1645C42.2453 44.2349 42.7628 44.3757 43.1334 44.4781C43.504 44.5805 43.9256 44.6957 44.0662 44.7341C44.5773 44.8621 44.884 45.3614 44.7243 45.8222C44.6796 45.9374 44.1365 46.8015 43.5104 47.7424C42.3028 49.5666 42.2389 49.637 41.4531 49.9826C40.7248 50.3091 40.8909 50.3027 30.5471 50.3027H20.9188L20.8741 50.1042C20.8549 49.9954 20.8358 49.7522 20.8358 49.573C20.8358 49.2786 20.8613 49.2145 21.0466 49.0353C21.2638 48.8241 21.7494 48.6385 22.0944 48.6385C22.2094 48.6385 22.5225 48.7153 22.7972 48.8049C23.1614 48.9265 23.4744 48.9841 23.9856 49.0033C24.6117 49.0353 24.9822 49.0097 26.6498 48.8305C26.9501 48.7985 27.5251 48.7409 27.9276 48.7025C29.4418 48.5553 29.8123 48.4977 30.0104 48.3761C30.4832 48.088 30.5535 47.6592 30.1893 47.3136C29.9146 47.0575 29.167 46.5391 28.7645 46.3407C28.3429 46.123 26.9373 45.5982 26.2984 45.4126C25.0014 45.0477 24.3242 44.9645 22.5289 44.9581C20.9572 44.9581 20.8549 44.9453 20.6058 44.8173C20.2863 44.6509 19.9349 44.2669 19.8199 43.966C19.7752 43.8444 19.6985 43.6524 19.6538 43.55C19.6091 43.4412 19.4174 42.9803 19.2321 42.5259C19.0469 42.0651 18.836 41.6234 18.753 41.5338C18.6763 41.4442 18.3313 41.041 17.9863 40.6377C17.6477 40.2345 17.2324 39.7416 17.0663 39.5496C16.9001 39.3576 16.5679 38.9672 16.3251 38.6855C16.0824 38.4039 15.7948 38.0711 15.6862 37.9495C15.1559 37.3478 13.712 35.7348 13.6801 35.7092C13.6609 35.69 13.4054 35.402 13.1051 35.0692C12.8048 34.7363 12.4598 34.3459 12.332 34.2051C12.2042 34.0643 11.8464 33.661 11.5334 33.309C11.2203 32.957 10.9136 32.6113 10.8498 32.5409C10.7795 32.4705 10.4089 32.0545 10.0192 31.6192C9.62306 31.1776 8.99694 30.4799 8.6136 30.0575C8.23665 29.6414 7.91081 29.2254 7.89164 29.1422C7.84053 28.9374 7.96831 28.6301 8.17276 28.4765C8.36443 28.3229 8.70943 28.3101 8.93944 28.4509ZM30.2276 40.1577C30.1765 40.1705 29.627 40.2729 29.0137 40.3817C27.9979 40.5673 23.3978 41.4826 21.9347 41.7834C21.1936 41.937 20.8102 42.1547 20.708 42.4619C20.5674 42.8907 20.7463 43.2492 21.1999 43.4604C21.66 43.6652 22.2925 43.6844 23.5575 43.518C25.4359 43.2748 26.4517 42.9867 28.1704 42.2315C29.1479 41.7962 29.544 41.585 30.1957 41.1434C30.9624 40.6185 31.1029 40.4393 30.8921 40.2281C30.8026 40.1321 30.496 40.1065 30.2276 40.1577ZM31.8313 42.6283C31.3904 42.6347 30.9815 42.6475 30.9304 42.6539C30.8793 42.6667 30.4768 42.7243 30.0359 42.7819C28.7006 42.9611 27.3334 43.358 27.1162 43.6396C26.9692 43.8316 26.9053 44.1773 26.9756 44.4333C27.0267 44.6381 27.0714 44.6765 27.3078 44.7341C27.4548 44.7725 27.6337 44.8237 27.704 44.8365C27.9595 44.9069 28.8604 45.1886 28.9818 45.2398C29.6654 45.5406 30.809 46.1358 31.1987 46.3919C31.6524 46.6991 31.7099 46.7183 32.074 46.7183C32.5085 46.7183 32.8343 46.5903 33.1474 46.2895C33.2496 46.1935 33.6266 45.8414 33.9844 45.515C34.6233 44.9325 34.6488 44.9133 35.3452 44.6701C36.3036 44.3437 36.3483 44.2669 35.818 43.8636C35.2238 43.4156 34.2527 42.9931 33.3007 42.7755C32.7768 42.6539 32.4702 42.6219 31.8313 42.6283Z" fill="white"/>
<path d="M50.0974 36.4838C49.3563 36.6054 48.5129 37.1687 48.0337 37.8663C47.4268 38.7496 47.3757 40.0617 47.906 41.1114C48.2446 41.7771 49.0432 42.43 49.7907 42.654C50.3146 42.8076 51.2155 42.782 51.7202 42.5964C52.8447 42.1867 53.6049 41.2779 53.803 40.0809C54.0777 38.404 52.8766 36.7462 51.1835 36.4774C50.7107 36.407 50.5893 36.407 50.0974 36.4838Z" fill="white"/>
<path d="M48.0848 46.9872C46.7879 48.4465 45.6826 49.5026 44.4687 50.4435C43.3506 51.3204 41.6958 52.0373 40.0539 52.3573C39.4661 52.4725 39.0699 52.4789 33.8949 52.4789C27.755 52.4789 28.0425 52.4597 27.8317 52.895C27.7295 53.119 27.7486 53.3686 27.8892 53.5734C28.0936 53.8742 29.3012 54.6999 29.9784 55.0008C32.1443 55.9608 35.6774 56.0761 38.3735 55.2824C40.3414 54.6999 43.242 53.3302 44.2898 52.4789C46.1873 50.9364 47.6632 49.4194 49.1454 47.4864C49.3754 47.1856 49.5863 46.9104 49.6118 46.8656C49.6374 46.8208 49.4968 46.6799 49.2412 46.5007C49.0176 46.3407 48.826 46.2063 48.8068 46.2063C48.794 46.2063 48.4682 46.5583 48.0848 46.9872Z" fill="white"/>
<path d="M46.8517 56.1657C46.8198 56.2233 46.6856 56.2809 46.5451 56.3001C45.4462 56.4409 44.8264 57.5674 45.4717 58.2459C45.8167 58.6107 46.2384 58.6299 47.2734 58.3419C47.6376 58.2395 47.8995 58.2843 47.9634 58.4635C48.1807 59.0203 46.9348 59.6796 46.4748 59.2508C46.3534 59.1356 46.2959 59.1227 46.149 59.174C45.8998 59.2636 45.8998 59.4812 46.149 59.9036C46.3981 60.3133 46.5834 60.3837 46.7495 60.134C46.8262 60.0124 46.9092 59.9676 47.0562 59.9676C47.7718 59.9676 48.6343 59.2444 48.6279 58.6427C48.6215 58.3483 48.4043 57.9514 48.1679 57.8042C47.874 57.625 47.5418 57.625 46.7751 57.817C46.0978 57.9834 45.9062 57.9514 45.8359 57.6698C45.7528 57.3434 46.1298 56.9657 46.5962 56.9145C46.8326 56.8889 46.9092 56.9081 47.0754 57.0489C47.3693 57.2986 47.6695 57.241 47.6695 56.9465C47.6695 56.8057 47.4459 56.3385 47.299 56.1721C47.1776 56.0376 46.9284 56.0312 46.8517 56.1657Z" fill="white"/>
<path d="M16.1143 56.396C15.6479 56.6393 15.4818 57.1321 15.6926 57.6314C15.7437 57.7594 15.9993 58.0858 16.2676 58.3674C16.6957 58.8155 16.7532 58.9051 16.734 59.0843C16.6893 59.5323 16.0312 59.4683 15.552 58.9691C15.3029 58.7131 15.2773 58.6555 15.2773 58.3674C15.2773 58.0858 15.2581 58.0346 15.1176 57.9706C14.9259 57.881 14.7854 57.9834 14.5362 58.4122C14.3573 58.7259 14.3637 59.0011 14.5617 59.0139C14.6192 59.0203 14.7023 59.0267 14.7342 59.0331C14.7726 59.0331 14.9131 59.1611 15.0473 59.3147C15.8268 60.1724 16.9512 60.2236 17.2962 59.4107C17.5071 58.9243 17.3537 58.5467 16.7148 57.9194C16.242 57.4585 16.1334 57.2729 16.242 57.0809C16.4209 56.7417 17.0407 56.8313 17.3601 57.2473C17.5007 57.4329 17.5135 57.4969 17.4751 57.7786C17.4368 58.0666 17.4496 58.105 17.571 58.1754C17.7818 58.2842 17.916 58.2074 18.1396 57.8362C18.3951 57.4073 18.4079 57.1705 18.1715 57.1129C18.0821 57.0873 17.916 56.9657 17.8074 56.8441C17.3282 56.2936 16.6446 56.1144 16.1143 56.396Z" fill="white"/>
<path fill-rule="evenodd" clip-rule="evenodd" d="M21.5513 58.5083L22.2413 58.7835V60.3964C22.2413 61.9134 22.2477 62.0158 22.3627 62.0734C22.6374 62.2206 22.5608 62.5919 22.2541 62.5919C21.9985 62.5919 21.0977 62.2078 21.021 62.067C20.9699 61.971 20.9827 61.9006 21.0593 61.779C21.1424 61.651 21.1999 61.6318 21.3341 61.6638C21.4299 61.6894 21.5321 61.7086 21.5641 61.715C21.628 61.7278 21.6663 61.4717 21.6088 61.3885C21.5896 61.3565 21.283 61.2157 20.9316 61.0685C20.2927 60.8125 20.2927 60.8125 20.1649 60.9341C20.0371 61.0621 20.0371 61.0621 20.216 61.1901C20.4843 61.3885 20.4204 61.7598 20.1202 61.7598C20.0115 61.7598 19.3918 61.5293 19.066 61.3629C18.7465 61.2029 18.8807 60.7741 19.2385 60.8125C19.3854 60.8317 19.5451 60.6973 20.2863 59.9292L21.1552 59.0203L20.8485 58.8731C20.5354 58.7131 20.4332 58.5147 20.5802 58.329C20.6952 58.1946 20.7974 58.2138 21.5513 58.5083ZM21.6152 59.4555C21.5066 59.4555 20.7463 60.2876 20.8038 60.3452C20.8741 60.4156 21.5066 60.6717 21.6024 60.6717C21.6407 60.6717 21.6663 60.4092 21.6663 60.0636C21.6663 59.7308 21.6407 59.4555 21.6152 59.4555Z" fill="white"/>
<path d="M42.2389 58.4187C41.8492 58.5595 41.7533 58.6171 41.7406 58.7387C41.7022 58.9883 41.8428 59.0907 42.1558 59.0459C42.3922 59.0139 42.4306 59.0267 42.4625 59.1548C42.4881 59.2316 42.6031 59.6028 42.7245 59.9804C42.8458 60.3581 42.9417 60.7613 42.9417 60.8893C42.9417 61.3118 42.4306 61.6958 41.9897 61.5998C41.6639 61.5294 41.5042 61.2734 41.2167 60.3581C40.9483 59.494 40.9483 59.398 41.1911 59.3916C41.3253 59.3916 41.485 59.1483 41.4403 59.0139C41.3636 58.7579 41.2039 58.7451 40.6033 58.9371C39.9836 59.1355 39.8111 59.2828 39.9388 59.5132C39.9836 59.6028 40.073 59.6476 40.1816 59.6476C40.3541 59.6476 40.3669 59.6732 40.6608 60.6013C40.9994 61.683 41.1208 61.8686 41.6128 62.0798C41.8811 62.195 42.0217 62.2142 42.3283 62.1886C42.8267 62.1438 43.1589 61.9134 43.4081 61.4398C43.6381 61.0045 43.6253 60.8253 43.2675 59.686C43.0056 58.8603 43.0056 58.8539 43.1334 58.7387C43.2675 58.6171 43.2867 58.5147 43.2228 58.3419C43.1653 58.1883 42.7947 58.2203 42.2389 58.4187Z" fill="white"/>
<path fill-rule="evenodd" clip-rule="evenodd" d="M26.5922 59.9035C27.5697 60.1211 27.8444 60.2747 28.0489 60.6844C28.33 61.2732 28.1319 61.8557 27.5442 62.1629C27.18 62.355 26.95 62.3678 26.1322 62.2333C25.9022 62.1949 25.9022 62.1949 25.8575 62.4702C25.8063 62.7774 25.8383 62.8158 26.2216 62.8734C26.605 62.9374 26.7136 63.0142 26.7136 63.2382C26.7136 63.5327 26.5475 63.5583 25.6913 63.3791C24.7777 63.187 24.6691 63.1358 24.6691 62.9054C24.6691 62.7006 24.8288 62.5854 25.0588 62.611C25.1994 62.6238 25.2186 62.5662 25.4486 61.5357C25.5763 60.934 25.685 60.4284 25.6913 60.4028C25.6913 60.3772 25.6147 60.3196 25.5188 60.2747C25.3208 60.1787 25.2505 59.9483 25.3719 59.8011C25.4805 59.6731 25.6338 59.6859 26.5922 59.9035ZM26.343 60.4796C26.2663 60.4796 26.0555 61.5101 26.1194 61.5677C26.2088 61.6573 26.9308 61.7405 27.1353 61.6829C27.3972 61.6189 27.5633 61.4205 27.5633 61.1836C27.5633 60.8828 27.3397 60.6908 26.835 60.582C26.5986 60.5244 26.375 60.4796 26.343 60.4796Z" fill="white"/>
<path fill-rule="evenodd" clip-rule="evenodd" d="M37.396 59.9677C38.2138 60.1981 38.4758 61.1326 37.8752 61.6895L37.7091 61.8431L38.1372 62.2463C38.3863 62.4831 38.6227 62.6496 38.7058 62.656C38.8783 62.656 39.0444 62.816 39.0444 62.976C39.0444 63.1424 38.8016 63.296 38.5397 63.296C38.348 63.296 38.2585 63.2384 37.9263 62.8928C37.7155 62.6688 37.4216 62.4063 37.281 62.3103C37.0446 62.1567 36.9807 62.1439 36.6805 62.1823L36.3546 62.2271L36.393 62.5535C36.4505 62.9696 36.4696 62.9952 36.6805 62.9568C37.0446 62.88 37.281 63.264 36.9871 63.4496C36.7699 63.584 35.7029 63.7121 35.5368 63.6161C35.3004 63.4944 35.4027 63.104 35.6646 63.104C35.7285 63.104 35.7924 63.0784 35.8116 63.0464C35.8435 62.9952 35.6454 61.3182 35.556 60.8766C35.5368 60.7742 35.4857 60.7358 35.3515 60.7358C35.1407 60.7358 35.0193 60.6334 35.0193 60.4541C35.0193 60.1981 35.1152 60.1597 35.9521 60.0381C36.9552 59.8909 37.0957 59.8845 37.396 59.9677ZM36.3418 60.5886L36.1566 60.6206L36.2013 61.075C36.2268 61.331 36.2652 61.5551 36.2907 61.5871C36.3546 61.6511 37.051 61.5102 37.2491 61.3886C37.3385 61.3374 37.4535 61.2478 37.4983 61.1902C37.626 61.0366 37.5941 60.755 37.4344 60.6462C37.2938 60.5438 36.7891 60.5245 36.3418 60.5886Z" fill="white"/>
<path fill-rule="evenodd" clip-rule="evenodd" d="M31.0454 60.3517C31.352 60.3517 31.7034 60.3709 31.8248 60.3901L32.0548 60.4285L32.5915 61.9198C33.0898 63.328 33.1346 63.4112 33.3007 63.4496C33.5051 63.488 33.5882 63.68 33.486 63.872C33.4221 63.9872 33.3582 64 32.7832 64C32.2273 64 32.1251 63.9808 32.0165 63.872C31.9462 63.8016 31.8887 63.712 31.8887 63.68C31.8887 63.5584 32.1443 63.36 32.304 63.36C32.4957 63.36 32.5084 63.2768 32.3359 63.104C32.2273 62.9951 32.1251 62.9759 31.5373 62.9759C30.9431 62.9759 30.8665 62.9887 30.8026 63.0976C30.7131 63.2704 30.7131 63.2768 30.9112 63.328C31.154 63.3856 31.2498 63.4752 31.2498 63.6544C31.2498 63.8976 31.0454 63.9616 30.4001 63.9104C29.7676 63.8656 29.6398 63.8016 29.6653 63.5584C29.6781 63.4368 29.7356 63.3792 29.889 63.3344C29.9976 63.296 30.1062 63.2256 30.119 63.1744C30.1381 63.1168 30.3617 62.6175 30.6109 62.0606C30.8601 61.5038 31.0518 61.0301 31.0326 61.0045C31.007 60.9853 30.8729 60.9533 30.7259 60.9341C30.3873 60.8829 30.2467 60.6973 30.3937 60.4925C30.4831 60.3645 30.547 60.3517 31.0454 60.3517ZM31.5437 61.4462C31.4926 61.5678 31.3904 61.8046 31.3201 61.9774C31.2434 62.1503 31.1987 62.3039 31.2179 62.3231C31.2881 62.3999 32.0804 62.4191 32.0804 62.3487C32.0804 62.3103 32.0037 62.0671 31.9143 61.811C31.7034 61.2158 31.6587 61.171 31.5437 61.4462Z" fill="white"/>
</svg>
