<svg width="64" height="64" viewBox="0 0 64 64" fill="none" xmlns="http://www.w3.org/2000/svg">
<g clip-path="url(#clip0_190_215)">
<path d="M30.122 0.0254599C30.0901 0.0382599 29.6238 0.0830599 29.1001 0.12146C28.5699 0.15986 27.6374 0.27506 27.0242 0.38386C26.411 0.49266 25.7787 0.60146 25.619 0.62706C24.712 0.78706 23.3388 1.15186 22.0741 1.56146C20.803 1.97746 19.9791 2.29746 18.6569 2.88626C18.3759 3.01426 17.4753 3.46226 17.0921 3.66706C16.9899 3.72466 16.8557 3.76946 16.7983 3.76946C16.7408 3.76946 16.6769 3.80786 16.6577 3.85266C16.645 3.89106 16.3511 4.08306 16.0126 4.27506C14.9587 4.85106 13.8474 5.58706 12.8637 6.34226C11.7587 7.18706 11.5991 7.31506 11.5671 7.34706C11.548 7.36626 11.318 7.57106 11.0561 7.80146C10.4813 8.30066 9.60624 9.13266 8.98668 9.77906C8.73758 10.0415 8.45015 10.3423 8.34157 10.4511C8.23937 10.5599 7.92001 10.9247 7.63897 11.2575C7.35793 11.5903 7.10883 11.8783 7.08967 11.8975C6.91083 12.0639 5.41622 14.1503 4.9244 14.9375C4.00464 16.3967 2.36951 19.6415 2.36951 19.9999C2.36951 20.0511 2.34396 20.0895 2.31203 20.0895C2.28009 20.0895 2.24177 20.1535 2.22261 20.2303C2.20983 20.3135 2.10125 20.6207 1.98628 20.9215C0.172306 25.7791 -0.421706 31.1743 0.293663 36.3775C0.78548 39.9359 1.79466 43.2127 3.38508 46.3935C4.19626 48.0191 5.20544 49.6831 6.08688 50.8735C6.6234 51.5967 7.2749 52.4159 7.72839 52.9535C8.3735 53.7087 10.4046 55.7567 10.9923 56.2431C11.2222 56.4351 11.4841 56.6655 11.5799 56.7551C11.6693 56.8447 12.0589 57.1519 12.4358 57.4271L13.1192 57.9391L13.3044 57.7151C13.4066 57.5935 13.6238 57.3119 13.7835 57.0815C14.3647 56.2687 15.2398 55.0655 15.3803 54.8863C15.4633 54.7839 15.5272 54.6815 15.5272 54.6495C15.5272 54.6175 15.2717 54.3999 14.9587 54.1567C14.2178 53.5871 13.3364 52.7999 12.2761 51.7631C11.9823 51.4751 11.2286 50.6687 10.9667 50.3615C10.7943 50.1695 10.5963 49.9391 10.5196 49.8495C10.443 49.7599 10.2258 49.4847 10.0342 49.2415C9.84257 48.9919 9.65734 48.7615 9.63179 48.7295C9.06332 48.0383 7.70285 45.8111 7.01302 44.4287C6.73837 43.8911 6.02939 42.2463 5.91442 41.8815C5.86332 41.7407 5.74197 41.3823 5.63977 41.0815C4.93079 39.0719 4.40704 36.5503 4.21542 34.2335C4.10684 32.8575 4.17071 29.7983 4.34316 28.5695C4.70085 25.9775 5.34596 23.5135 6.20185 21.4975C6.31043 21.2351 6.43179 20.9279 6.47011 20.8255C6.57869 20.5375 7.46013 18.7839 7.78588 18.2015C9.41462 15.3343 11.8418 12.4671 14.3775 10.4191C17.2773 8.07026 20.7775 6.22066 24.118 5.27346C24.4374 5.18386 24.8398 5.06866 25.0122 5.01746C25.3635 4.91506 25.8809 4.80626 26.8965 4.60786C27.548 4.48626 27.8098 4.44146 29.0681 4.26866C29.8921 4.15346 34.0501 4.15346 34.8485 4.26866C35.1679 4.31346 35.6533 4.37746 35.9344 4.41586C39.0833 4.83186 42.8837 6.13106 45.7068 7.75666C46.3839 8.14706 47.3036 8.72306 47.3228 8.77426C47.3356 8.80626 47.3739 8.82546 47.4122 8.82546C47.5591 8.82546 49.4561 10.2719 50.4334 11.1295C53.001 13.3887 55.0769 16.0575 56.712 19.1999C57.4977 20.7167 58.1811 22.3743 58.5771 23.7375C58.9986 25.2031 59.1136 25.6639 59.3116 26.6431C60.1036 30.6815 60.027 34.5023 59.0817 38.5215C58.9412 39.1039 58.7751 39.7631 58.7048 39.9935C58.6282 40.2239 58.5452 40.5119 58.5068 40.6335C58.4685 40.7551 58.4046 40.9599 58.3535 41.0815C58.3088 41.2031 58.1811 41.5487 58.0661 41.8495C57.9575 42.1503 57.7787 42.6111 57.6701 42.8735C57.3635 43.6351 56.2585 45.8239 55.9008 46.3615C55.722 46.6367 55.5751 46.8735 55.5751 46.8927C55.5751 46.9887 54.1891 48.9599 53.7994 49.4271C53.6653 49.5807 53.5056 49.7727 53.4418 49.8559C52.8605 50.5919 51.2382 52.2623 50.4334 52.9663C50.2226 53.1455 49.9671 53.3759 49.8585 53.4655C49.7563 53.5615 49.2454 53.9519 48.728 54.3423C48.2042 54.7327 47.7827 55.0591 47.7827 55.0783C47.7827 55.1679 48.3384 55.9615 49.5839 57.6575C49.6988 57.8175 49.8138 57.9711 49.8394 58.0095C49.8649 58.0415 49.9543 58.1567 50.0374 58.2591L50.1843 58.4383L50.4717 58.2271C50.625 58.1055 50.8996 57.9071 51.0721 57.7855C51.2509 57.6639 51.4298 57.5295 51.4809 57.4783C51.6725 57.2927 52.2346 56.8895 52.3048 56.8895C52.3496 56.8895 52.3815 56.8639 52.3815 56.8383C52.3815 56.8063 52.7072 56.4927 53.1032 56.1407C53.908 55.4175 55.3771 53.9647 55.8753 53.3951C56.0541 53.1903 56.2713 52.9407 56.3543 52.8511C56.5012 52.6783 56.6673 52.4735 57.4593 51.4623C57.6829 51.1679 58.0406 50.6815 58.2386 50.3743C58.443 50.0671 58.6346 49.7919 58.6601 49.7535C58.8006 49.5679 59.4138 48.5759 59.8226 47.8719C60.8126 46.1375 61.7324 44.0703 62.3583 42.1375C63.6102 38.3103 64.134 34.4895 63.9424 30.5855C63.7891 27.4047 63.3292 24.9471 62.3136 21.8495C61.9112 20.6207 61.8218 20.3775 61.5024 19.6415C61.413 19.4495 61.3044 19.1871 61.2533 19.0655C61.0937 18.6751 60.1994 16.8703 59.9503 16.4415C59.8162 16.2111 59.6438 15.9103 59.5607 15.7695C59.4841 15.6287 59.3691 15.4239 59.3052 15.3215C58.8965 14.6047 57.619 12.8063 56.7376 11.7055C56.0861 10.8927 54.5404 9.27346 53.3715 8.17906C52.9116 7.75026 51.5703 6.67506 50.9124 6.19506C50.6505 6.00946 50.4206 5.83666 50.4014 5.81746C50.3312 5.73426 49.0346 4.90226 48.2553 4.44146C47.8018 4.17906 47.3867 3.92946 47.3356 3.89746C46.9971 3.69266 45.215 2.84146 44.4422 2.51506C44.225 2.42546 43.9631 2.31026 43.8545 2.26546C43.6757 2.18866 43.4713 2.11186 42.5771 1.77906C41.6062 1.42066 39.5815 0.85746 38.4254 0.62706C36.1452 0.17266 34.2865 -0.00654011 31.9104 -0.000140115C30.9651 -0.000140115 30.1603 0.0126599 30.122 0.0254599Z" fill="#348AE1"/>
<path fill-rule="evenodd" clip-rule="evenodd" d="M37.1481 7.76964C39.5752 8.11524 42.0598 9.05604 43.8547 10.3168C47.0547 12.5568 50.3696 15.9808 52.0942 18.8416C53.608 21.3568 54.7385 24.3648 55.2878 27.3472C55.6391 29.2608 55.5561 31.9616 55.0834 34.2656C55.0259 34.5472 54.9557 34.816 54.9173 34.8544C54.8024 35.008 54.5086 34.944 54.2403 34.72C53.9018 34.4384 53.2567 34.1312 52.7457 34.0096C52.5221 33.9584 52.0303 33.9136 51.6088 33.9136C50.9828 33.9136 50.8551 33.8944 50.7656 33.7984C50.6762 33.7024 50.6634 33.4208 50.6443 31.8016C50.6251 29.984 50.6187 29.9008 50.4782 29.5936C49.7628 28.0512 48.0383 27.456 46.5692 28.256C45.9305 28.6016 43.8227 30.7648 42.7369 32.1856C41.9704 33.1904 40.7632 34.2016 39.6902 34.7392C39.1537 35.008 38.8918 35.0016 38.6108 34.72L38.3936 34.5024V31.9168C38.3936 28.6976 38.2978 27.7696 37.8698 26.6688C37.6399 26.08 37.4738 25.9072 37.097 25.8688C36.8543 25.8368 36.7904 25.8624 36.6115 26.016C36.3752 26.2336 36.1453 26.848 35.9984 27.6864C35.8834 28.3648 35.8579 32.5824 35.9728 33.664C36.0303 34.2848 36.0303 34.3488 35.9026 34.6368C35.6535 35.2 35.1233 35.6416 34.5612 35.7376C34.1525 35.808 33.188 35.2064 32.6451 34.5344C32.2235 34.016 31.9425 33.4208 31.6614 32.4608C31.0802 30.4512 30.9141 28.5952 31.1058 26.4256C31.2016 25.3568 31.1696 23.4368 31.0483 22.4704C31.01 22.176 30.8758 21.5552 30.7545 21.0944C29.8028 17.5488 29.592 16.7168 29.477 16.0896C29.3429 15.3472 29.311 13.5808 29.4131 12.8256C29.4706 12.3968 29.5473 12.1408 29.7006 11.8592C30.3585 10.6112 32.0511 9.87524 33.501 10.1952C33.897 10.2848 34.1844 10.4256 35.0722 10.9376C36.3688 11.6928 36.5477 11.744 37.8762 11.6864C38.5916 11.6608 38.8662 11.616 39.4155 11.456C39.8243 11.3344 40.2331 11.2576 40.4567 11.2576C41.4403 11.2576 42.673 12.064 43.3501 13.152C43.58 13.5168 43.6694 13.7472 43.7652 14.2144C43.9185 14.9568 43.9377 16.1792 43.7972 16.7744C43.6503 17.4016 43.4587 18.5984 43.3309 19.6736C43.1776 20.96 43.1776 23.2704 43.3309 24.0896C43.497 25.0176 43.5225 25.8432 43.4139 26.9504C43.3054 28.0832 43.3309 28.256 43.6375 28.4352C43.8036 28.5376 43.8738 28.5376 44.1293 28.4736C44.7169 28.3264 45.0682 28.1088 45.3237 27.744C45.5984 27.3408 45.6367 27.1168 45.7325 25.2096C45.7964 23.9232 45.8986 23.552 46.2946 23.136C46.9461 22.464 48.0319 22.4256 48.677 23.0592C48.7984 23.1808 49.3157 23.6992 49.8267 24.2176C50.6507 25.0496 50.7912 25.1584 51.085 25.248C51.3533 25.3248 51.4682 25.3312 51.6918 25.2736C52.3113 25.1072 52.6371 24.6528 52.6371 23.9296C52.6371 23.0528 52.388 21.6704 52.0942 20.9152C51.877 20.3712 50.6571 18.5024 49.7309 17.2992C48.479 15.68 46.4862 13.5296 45.2918 12.5056C43.6694 11.1232 41.5808 9.90724 40.2331 9.56804C38.4766 9.12004 37.2311 8.99204 34.5932 8.98564C32.594 8.98564 32.4599 8.99204 31.9425 9.13284C31.2654 9.31204 30.2307 9.82404 29.7836 10.1888C29.0746 10.7776 28.5317 11.6032 28.2698 12.5056C28.1229 13.0048 28.0974 13.2416 28.0654 14.2656C28.0143 16.0512 28.1613 16.9536 28.7872 18.5664C29.6559 20.8064 29.873 22.5536 29.5664 24.8064C29.4642 25.5936 29.4323 26.1312 29.4323 27.2256C29.4323 29.024 29.5728 30.2208 29.9688 31.9168C30.3074 33.3568 30.5117 33.856 31.01 34.3872C31.2591 34.6624 31.2974 34.8096 31.1377 34.944C31.0163 35.0464 30.5948 34.9696 29.6622 34.6688C27.4842 33.9776 26.0918 33.1776 24.7824 31.8464C23.3389 30.3872 22.3936 28.9536 21.5313 26.9376C19.794 22.8416 20.1772 18.2208 22.5788 14.3936C23.4794 12.96 25.1082 11.3216 26.5453 10.4C26.986 10.112 28.5125 9.27364 28.9724 9.05604C30.4734 8.35204 32.3257 7.78884 33.5074 7.66724C34.261 7.59684 36.3433 7.65444 37.1481 7.76964ZM32.7409 11.2832C32.0319 11.2448 31.3996 11.488 30.9269 11.9808C30.6076 12.3136 30.4096 13.1712 30.3648 14.4256C30.3329 15.3088 30.3457 15.4816 30.5373 16.6016C30.7609 17.9136 31.1313 19.5136 31.4315 20.4416C31.9169 21.9712 31.9553 22.4064 31.968 26.2016C31.9808 29.504 31.9936 29.7088 32.2682 31.0656C32.5812 32.5824 32.8495 33.1648 33.501 33.76C34.1589 34.3616 34.6698 34.5152 34.9828 34.2016L35.1425 34.0416L35.1297 30.5984C35.1169 27.2704 35.1233 27.1424 35.2575 26.6176C35.4235 25.9456 35.8706 24.992 36.107 24.7936C36.3624 24.576 36.701 24.4864 37.1161 24.5248C37.8251 24.5888 38.202 24.9984 38.5852 26.144C38.9557 27.2448 38.9876 27.5136 39.0259 30.3104C39.0642 32.8512 39.0642 32.8896 39.2048 33.024C39.4666 33.2864 39.8946 33.1648 40.4183 32.6784C40.8335 32.2944 41.0379 31.9744 41.3573 31.1872C42.0918 29.3824 42.5133 27.424 42.59 25.4656C42.6155 24.6784 42.6028 24.352 42.5133 23.8656C42.3728 23.0592 42.3153 20.9728 42.4111 20.032C42.4495 19.6416 42.5772 18.8992 42.6858 18.3744C42.8455 17.6192 42.8838 17.2288 42.9094 16.3776C42.9413 15.3088 42.8583 14.1888 42.7369 14.1504C42.705 14.1376 42.6922 14.0608 42.7113 13.9712C42.788 13.6768 42.2323 12.9536 41.6766 12.6272C40.9676 12.2112 40.067 12.1024 39.2814 12.3392C38.5405 12.5632 38.0998 12.6208 37.4163 12.5824C36.6115 12.5312 36.4135 12.48 34.6251 11.8272C33.4563 11.4048 33.105 11.3024 32.7409 11.2832Z" fill="#2B2BE1"/>
<path fill-rule="evenodd" clip-rule="evenodd" d="M8.93573 28.448C9.03153 28.5056 9.20399 28.6784 9.31896 28.832C9.65109 29.28 10.2579 29.7408 10.9349 30.0544C11.6311 30.3872 11.7589 30.5344 11.7589 31.0272C11.7589 31.3216 11.5545 31.7888 11.3629 31.9232C11.2607 31.9936 11.2415 32.0512 11.2798 32.2432C11.3309 32.5376 11.5417 32.8448 11.7908 32.9984C12.1868 33.2416 12.2315 33.2288 12.7808 32.7872C13.2471 32.4096 13.311 32.3776 13.5984 32.3776C14.0902 32.3776 14.2243 32.4416 15.719 33.344C16.0192 33.5232 17.3796 34.3296 17.5521 34.432C18.1972 34.7968 18.6188 35.1104 18.8551 35.3728C19.2447 35.8208 19.5513 36.4672 19.596 36.9536C19.6279 37.3248 19.6152 37.3824 19.4746 37.5488C19.3916 37.6512 19.283 37.8304 19.2319 37.9392C19.1617 38.1184 19.1617 38.176 19.2511 38.368C19.4491 38.784 19.8515 38.8032 20.6116 38.4448C21.0204 38.2464 21.097 38.2336 21.691 38.24C22.2723 38.24 22.7768 38.2912 24.0351 38.464C24.7058 38.5536 26.5964 38.5344 27.4395 38.4192C28.1996 38.3232 28.5573 38.2528 30.0583 37.92C30.4798 37.824 31.0866 37.6896 31.3996 37.6256C32.6898 37.344 33.8012 37.3568 34.8168 37.664C35.1617 37.7728 36.1325 38.2272 37.4675 38.9056C38.7257 39.552 39.7413 40.0256 39.9904 40.096C40.3736 40.1984 40.4375 40.1984 40.7952 40.1088C41.2168 40 41.4595 40.0192 42.3218 40.2432C43.3245 40.4992 44.174 40.8576 45.4834 41.5744C45.9369 41.824 46.6651 42.0992 47.1313 42.2016C47.406 42.2592 47.4826 42.5216 47.2782 42.688C47.0291 42.8928 46.2052 43.3216 46.0711 43.3216C46.0008 43.3216 44.7808 42.8544 43.3629 42.2912C39.3134 40.6656 39.0387 40.5824 37.1034 40.3712C36.3178 40.2816 36.0367 40.3136 35.7876 40.5056C35.3277 40.8704 34.3633 41.8688 34.3824 41.9648C34.408 42.112 34.6188 42.2016 35.4619 42.4192C36.1006 42.5856 38.6044 43.2576 39.7988 43.5776C40.214 43.6928 41.0762 43.9232 41.9705 44.16C42.2323 44.2304 42.7497 44.3712 43.1202 44.4736C43.4906 44.576 43.9122 44.6912 44.0527 44.7296C44.5637 44.8576 44.8703 45.3568 44.7106 45.8176C44.6659 45.9328 44.123 46.7968 43.497 47.7376C42.2898 49.5616 42.2259 49.632 41.4403 49.9776C40.7122 50.304 40.8782 50.2976 30.5373 50.2976H20.9118L20.8671 50.0992C20.8479 49.9904 20.8287 49.7472 20.8287 49.568C20.8287 49.2736 20.8543 49.2096 21.0395 49.0304C21.2567 48.8192 21.7421 48.6336 22.087 48.6336C22.202 48.6336 22.515 48.7104 22.7896 48.8C23.1537 48.9216 23.4667 48.9792 23.9776 48.9984C24.6036 49.0304 24.974 49.0048 26.6411 48.8256C26.9413 48.7936 27.5162 48.736 27.9186 48.6976C29.4323 48.5504 29.8028 48.4928 30.0008 48.3712C30.4734 48.0832 30.5437 47.6544 30.1796 47.3088C29.905 47.0528 29.1577 46.5344 28.7553 46.336C28.3337 46.1184 26.9285 45.5936 26.2898 45.408C24.9932 45.0432 24.3162 44.96 22.5214 44.9536C20.9501 44.9536 20.8479 44.9408 20.5988 44.8128C20.2794 44.6464 19.9281 44.2624 19.8132 43.9616C19.7685 43.84 19.6918 43.648 19.6471 43.5456C19.6024 43.4368 19.4108 42.976 19.2255 42.5216C19.0403 42.0608 18.8295 41.6192 18.7465 41.5296C18.6699 41.44 18.3249 41.0368 17.98 40.6336C17.6415 40.2304 17.2263 39.7376 17.0603 39.5456C16.8942 39.3536 16.5621 38.9632 16.3194 38.6816C16.0766 38.4 15.7892 38.0672 15.6806 37.9456C15.1505 37.344 13.707 35.7312 13.675 35.7056C13.6559 35.6864 13.4004 35.3984 13.1002 35.0656C12.8 34.7328 12.4551 34.3424 12.3273 34.2016C12.1996 34.0608 11.8419 33.6576 11.5289 33.3056C11.216 32.9536 10.9094 32.608 10.8455 32.5376C10.7752 32.4672 10.4048 32.0512 10.0152 31.616C9.61916 31.1744 8.99321 30.4768 8.60998 30.0544C8.23313 29.6384 7.90738 29.2224 7.88822 29.1392C7.83712 28.9344 7.96487 28.6272 8.16926 28.4736C8.36088 28.32 8.70578 28.3072 8.93573 28.448ZM30.218 40.1536C30.1669 40.1664 29.6176 40.2688 29.0044 40.3776C27.9888 40.5632 23.39 41.4784 21.9273 41.7792C21.1864 41.9328 20.8032 42.1504 20.701 42.4576C20.5605 42.8864 20.7393 43.2448 21.1928 43.456C21.6527 43.6608 22.285 43.68 23.5497 43.5136C25.4275 43.2704 26.4431 42.9824 28.1613 42.2272C29.1385 41.792 29.5345 41.5808 30.186 41.1392C30.9525 40.6144 31.093 40.4352 30.8822 40.224C30.7928 40.128 30.4862 40.1024 30.218 40.1536ZM31.8212 42.624C31.3804 42.6304 30.9717 42.6432 30.9206 42.6496C30.8695 42.6624 30.4671 42.72 30.0263 42.7776C28.6914 42.9568 27.3245 43.3536 27.1074 43.6352C26.9605 43.8272 26.8966 44.1728 26.9669 44.4288C27.018 44.6336 27.0627 44.672 27.299 44.7296C27.4459 44.768 27.6247 44.8192 27.695 44.832C27.9505 44.9024 28.8511 45.184 28.9725 45.2352C29.6559 45.536 30.7992 46.1312 31.1888 46.3872C31.6423 46.6944 31.6998 46.7136 32.0639 46.7136C32.4982 46.7136 32.8239 46.5856 33.1369 46.2848C33.2391 46.1888 33.616 45.8368 33.9736 45.5104C34.6124 44.928 34.6379 44.9088 35.3341 44.6656C36.2922 44.3392 36.3369 44.2624 35.8068 43.8592C35.2128 43.4112 34.2419 42.9888 33.2902 42.7712C32.7665 42.6496 32.4599 42.6176 31.8212 42.624Z" fill="#348AE1"/>
<path d="M50.0822 36.48C49.3413 36.6016 48.4982 37.1648 48.0192 37.8624C47.4124 38.7456 47.3613 40.0576 47.8914 41.1072C48.2299 41.7728 49.0283 42.4256 49.7756 42.6496C50.2994 42.8032 51.2 42.7776 51.7046 42.592C52.8287 42.1824 53.5888 41.2736 53.7868 40.0768C54.0615 38.4 52.8607 36.7424 51.1681 36.4736C50.6954 36.4032 50.5741 36.4032 50.0822 36.48Z" fill="#2B2BE1"/>
<path d="M48.0703 46.9824C46.7737 48.4416 45.6687 49.4976 44.4551 50.4384C43.3373 51.3152 41.683 52.032 40.0415 52.352C39.4539 52.4672 39.0579 52.4736 33.8842 52.4736C27.7461 52.4736 28.0335 52.4544 27.8228 52.8896C27.7206 53.1136 27.7397 53.3632 27.8802 53.568C28.0846 53.8688 29.2918 54.6944 29.9689 54.9952C32.1341 55.9552 35.6663 56.0704 38.3617 55.2768C40.3289 54.6944 43.2287 53.3248 44.2762 52.4736C46.1733 50.9312 47.6487 49.4144 49.1305 47.4816C49.3605 47.1808 49.5713 46.9056 49.5968 46.8608C49.6224 46.816 49.4818 46.6752 49.2263 46.496C49.0028 46.336 48.8112 46.2016 48.792 46.2016C48.7792 46.2016 48.4535 46.5536 48.0703 46.9824Z" fill="#2B2BE1"/>
<path d="M46.8375 56.16C46.8056 56.2176 46.6714 56.2752 46.5309 56.2944C45.4323 56.4352 44.8127 57.5616 45.4579 58.24C45.8028 58.6048 46.2243 58.624 47.2591 58.336C47.6231 58.2336 47.885 58.2784 47.9489 58.4576C48.166 59.0144 46.9205 59.6736 46.4607 59.2448C46.3393 59.1296 46.2818 59.1168 46.1349 59.168C45.8858 59.2576 45.8858 59.4752 46.1349 59.8976C46.384 60.3072 46.5692 60.3776 46.7353 60.128C46.8119 60.0064 46.895 59.9616 47.0419 59.9616C47.7573 59.9616 48.6195 59.2384 48.6131 58.6368C48.6068 58.3424 48.3896 57.9456 48.1533 57.7984C47.8595 57.6192 47.5273 57.6192 46.7608 57.8112C46.0838 57.9776 45.8922 57.9456 45.8219 57.664C45.7389 57.3376 46.1157 56.96 46.582 56.9088C46.8183 56.8832 46.895 56.9024 47.061 57.0432C47.3549 57.2928 47.6551 57.2352 47.6551 56.9408C47.6551 56.8 47.4315 56.3328 47.2846 56.1664C47.1632 56.032 46.9141 56.0256 46.8375 56.16Z" fill="#2B2BE1"/>
<path d="M16.1086 56.3904C15.6423 56.6336 15.4762 57.1264 15.687 57.6256C15.7381 57.7536 15.9936 58.08 16.2619 58.3616C16.6898 58.8096 16.7473 58.8992 16.7281 59.0784C16.6834 59.5264 16.0255 59.4624 15.5465 58.9632C15.2974 58.7072 15.2718 58.6496 15.2718 58.3616C15.2718 58.08 15.2527 58.0288 15.1122 57.9648C14.9205 57.8752 14.78 57.9776 14.5309 58.4064C14.3521 58.72 14.3585 58.9952 14.5565 59.008C14.614 59.0144 14.697 59.0208 14.7289 59.0272C14.7673 59.0272 14.9078 59.1552 15.0419 59.3088C15.8211 60.1664 16.9453 60.2176 17.2902 59.4048C17.501 58.9184 17.3477 58.5408 16.709 57.9136C16.2363 57.4528 16.1277 57.2672 16.2363 57.0752C16.4152 56.736 17.0347 56.8256 17.3541 57.2416C17.4946 57.4272 17.5074 57.4912 17.4691 57.7728C17.4307 58.0608 17.4435 58.0992 17.5649 58.1696C17.7756 58.2784 17.9098 58.2016 18.1333 57.8304C18.3888 57.4016 18.4016 57.1648 18.1653 57.1072C18.0758 57.0816 17.9098 56.96 17.8012 56.8384C17.3221 56.288 16.6387 56.1088 16.1086 56.3904Z" fill="#2B2BE1"/>
<path fill-rule="evenodd" clip-rule="evenodd" d="M21.5441 58.5024L22.2339 58.7776V60.3904C22.2339 61.9072 22.2403 62.0096 22.3553 62.0672C22.6299 62.2144 22.5533 62.5856 22.2467 62.5856C21.9912 62.5856 21.0906 62.2016 21.0139 62.0608C20.9628 61.9648 20.9756 61.8944 21.0523 61.7728C21.1353 61.6448 21.1928 61.6256 21.3269 61.6576C21.4227 61.6832 21.5249 61.7024 21.5569 61.7088C21.6207 61.7216 21.6591 61.4656 21.6016 61.3824C21.5824 61.3504 21.2758 61.2096 20.9245 61.0624C20.2858 60.8064 20.2858 60.8064 20.1581 60.928C20.0303 61.056 20.0303 61.056 20.2092 61.184C20.4774 61.3824 20.4135 61.7536 20.1133 61.7536C20.0048 61.7536 19.3852 61.5232 19.0595 61.3568C18.7401 61.1968 18.8742 60.768 19.2319 60.8064C19.3788 60.8256 19.5385 60.6912 20.2794 59.9232L21.1481 59.0144L20.8415 58.8672C20.5285 58.7072 20.4263 58.5088 20.5732 58.3232C20.6882 58.1888 20.7904 58.208 21.5441 58.5024ZM21.608 59.4496C21.4994 59.4496 20.7393 60.2816 20.7968 60.3392C20.867 60.4096 21.4994 60.6656 21.5952 60.6656C21.6335 60.6656 21.6591 60.4032 21.6591 60.0576C21.6591 59.7248 21.6335 59.4496 21.608 59.4496Z" fill="#2B2BE1"/>
<path d="M42.2259 58.4128C41.8363 58.5536 41.7405 58.6112 41.7277 58.7328C41.6894 58.9824 41.8299 59.0848 42.1429 59.04C42.3792 59.008 42.4176 59.0208 42.4495 59.1488C42.475 59.2256 42.59 59.5968 42.7114 59.9744C42.8327 60.352 42.9285 60.7552 42.9285 60.8832C42.9285 61.3056 42.4176 61.6896 41.9768 61.5936C41.6511 61.5232 41.4914 61.2672 41.204 60.352C40.9357 59.488 40.9357 59.392 41.1784 59.3856C41.3126 59.3856 41.4722 59.1424 41.4275 59.008C41.3509 58.752 41.1912 58.7392 40.5908 58.9312C39.9713 59.1296 39.7988 59.2768 39.9265 59.5072C39.9713 59.5968 40.0607 59.6416 40.1693 59.6416C40.3417 59.6416 40.3545 59.6672 40.6483 60.5952C40.9868 61.6768 41.1082 61.8624 41.6 62.0736C41.8683 62.1888 42.0088 62.208 42.3154 62.1824C42.8136 62.1376 43.1457 61.9072 43.3948 61.4336C43.6247 60.9984 43.612 60.8192 43.2543 59.68C42.9924 58.8544 42.9924 58.848 43.1202 58.7328C43.2543 58.6112 43.2734 58.5088 43.2096 58.336C43.1521 58.1824 42.7816 58.2144 42.2259 58.4128Z" fill="#2B2BE1"/>
<path fill-rule="evenodd" clip-rule="evenodd" d="M26.5836 59.8976C27.5609 60.1152 27.8355 60.2688 28.0399 60.6784C28.321 61.2672 28.1229 61.8496 27.5353 62.1568C27.1713 62.3488 26.9413 62.3616 26.1237 62.2272C25.8938 62.1888 25.8938 62.1888 25.8491 62.464C25.798 62.7712 25.8299 62.8096 26.2132 62.8672C26.5964 62.9312 26.705 63.008 26.705 63.232C26.705 63.5264 26.5389 63.552 25.683 63.3728C24.7697 63.1808 24.6611 63.1296 24.6611 62.8992C24.6611 62.6944 24.8208 62.5792 25.0507 62.6048C25.1912 62.6176 25.2104 62.56 25.4403 61.5296C25.5681 60.928 25.6766 60.4224 25.683 60.3968C25.683 60.3712 25.6064 60.3136 25.5106 60.2688C25.3126 60.1728 25.2423 59.9424 25.3637 59.7952C25.4722 59.6672 25.6255 59.68 26.5836 59.8976ZM26.3345 60.4736C26.2579 60.4736 26.0471 61.504 26.111 61.5616C26.2004 61.6512 26.9221 61.7344 27.1265 61.6768C27.3884 61.6128 27.5545 61.4144 27.5545 61.1776C27.5545 60.8768 27.3309 60.6848 26.8263 60.576C26.59 60.5184 26.3665 60.4736 26.3345 60.4736Z" fill="#2B2BE1"/>
<path fill-rule="evenodd" clip-rule="evenodd" d="M37.3844 59.9616C38.202 60.192 38.4639 61.1264 37.8635 61.6832L37.6974 61.8368L38.1253 62.24C38.3744 62.4768 38.6108 62.6432 38.6938 62.6496C38.8662 62.6496 39.0323 62.8096 39.0323 62.9696C39.0323 63.136 38.7896 63.2896 38.5277 63.2896C38.3361 63.2896 38.2467 63.232 37.9145 62.8864C37.7038 62.6624 37.41 62.4 37.2694 62.304C37.0331 62.1504 36.9692 62.1376 36.669 62.176L36.3433 62.2208L36.3816 62.5472C36.4391 62.9632 36.4583 62.9888 36.669 62.9504C37.0331 62.8736 37.2694 63.2576 36.9756 63.4432C36.7585 63.5776 35.6918 63.7056 35.5257 63.6096C35.2894 63.488 35.3916 63.0976 35.6535 63.0976C35.7173 63.0976 35.7812 63.072 35.8004 63.04C35.8323 62.9888 35.6343 61.312 35.5449 60.8704C35.5257 60.768 35.4746 60.7296 35.3405 60.7296C35.1297 60.7296 35.0084 60.6272 35.0084 60.448C35.0084 60.192 35.1042 60.1536 35.9409 60.032C36.9437 59.8848 37.0842 59.8784 37.3844 59.9616ZM36.3305 60.5824L36.1453 60.6144L36.19 61.0688C36.2155 61.3248 36.2539 61.5488 36.2794 61.5808C36.3433 61.6448 37.0395 61.504 37.2375 61.3824C37.3269 61.3312 37.4419 61.2416 37.4866 61.184C37.6144 61.0304 37.5824 60.7488 37.4227 60.64C37.2822 60.5376 36.7776 60.5184 36.3305 60.5824Z" fill="#2B2BE1"/>
<path fill-rule="evenodd" clip-rule="evenodd" d="M31.0355 60.3456C31.3421 60.3456 31.6934 60.3648 31.8148 60.384L32.0447 60.4224L32.5812 61.9136C33.0794 63.3216 33.1241 63.4048 33.2902 63.4432C33.4946 63.4816 33.5776 63.6736 33.4754 63.8656C33.4116 63.9808 33.3477 63.9936 32.7728 63.9936C32.2172 63.9936 32.115 63.9744 32.0064 63.8656C31.9361 63.7952 31.8786 63.7056 31.8786 63.6736C31.8786 63.552 32.1341 63.3536 32.2938 63.3536C32.4854 63.3536 32.4982 63.2704 32.3257 63.0976C32.2172 62.9888 32.115 62.9696 31.5273 62.9696C30.9333 62.9696 30.8567 62.9824 30.7928 63.0912C30.7034 63.264 30.7034 63.2704 30.9014 63.3216C31.1441 63.3792 31.2399 63.4688 31.2399 63.648C31.2399 63.8912 31.0355 63.9552 30.3904 63.904C29.7581 63.8592 29.6303 63.7952 29.6559 63.552C29.6687 63.4304 29.7261 63.3728 29.8794 63.328C29.988 63.2896 30.0966 63.2192 30.1094 63.168C30.1285 63.1104 30.3521 62.6112 30.6012 62.0544C30.8503 61.4976 31.0419 61.024 31.0227 60.9984C30.9972 60.9792 30.8631 60.9472 30.7162 60.928C30.3776 60.8768 30.2371 60.6912 30.384 60.4864C30.4734 60.3584 30.5373 60.3456 31.0355 60.3456ZM31.5337 61.44C31.4826 61.5616 31.3804 61.7984 31.3102 61.9712C31.2335 62.144 31.1888 62.2976 31.208 62.3168C31.2782 62.3936 32.0703 62.4128 32.0703 62.3424C32.0703 62.304 31.9936 62.0608 31.9042 61.8048C31.6934 61.2096 31.6487 61.1648 31.5337 61.44Z" fill="#2B2BE1"/>
</g>
<defs>
<clipPath id="clip0_190_215">
<rect width="64" height="64" fill="white"/>
</clipPath>
</defs>
</svg>
