<svg width="27" height="27" viewBox="0 0 27 27" fill="none" xmlns="http://www.w3.org/2000/svg">
<path d="M5.62523 11.0931C7.78118 15.7887 11.6174 19.522 16.3869 21.5459L17.1515 21.8865C18.9006 22.6659 20.9569 22.0738 22.0237 20.4836L23.0228 18.9944C23.3477 18.5102 23.2488 17.8581 22.795 17.4921L19.4067 14.7585C18.909 14.357 18.1771 14.4506 17.7964 14.9643L16.7482 16.3787C14.0586 15.052 11.8749 12.8683 10.5481 10.1786L11.9625 9.13042C12.4763 8.7497 12.5698 8.01787 12.1683 7.52019L9.43469 4.13175C9.06867 3.67806 8.41673 3.5791 7.93257 3.90374L6.43312 4.90915C4.83299 5.98207 4.24418 8.05528 5.04151 9.80909L5.62436 11.0912L5.62523 11.0931Z" fill="#ffffff"/>
</svg>
