<svg width="131" height="96" viewBox="0 0 131 96" fill="none" xmlns="http://www.w3.org/2000/svg">
<path fill-rule="evenodd" clip-rule="evenodd" d="M59.8639 10.8857C50.6798 6.87777 33.4997 1.97517 14.5552 0.223965C6.91494 -0.48229 0.657532 4.42308 0.657532 10.4176V68.3055C0.657532 74.3003 6.94527 79.0768 14.5154 80.1477C31.6078 82.566 45.8245 88.9518 54.8961 94.0003C56.4159 94.8462 58.0981 95.4866 59.8639 95.9222V10.8857ZM71.473 95.9237C73.2364 95.4888 74.9163 94.8491 76.4342 94.0047C85.5055 88.9554 99.7249 82.5675 116.822 80.1492C124.392 79.0783 130.679 74.3011 130.679 68.3065V10.4186C130.679 4.42411 124.422 -0.481259 116.782 0.224992C97.8368 1.9762 80.6571 6.87814 71.473 10.8859V95.9237Z" fill="#013060"/>
</svg>
